<mxfile host="app.diagrams.net" modified="2023-05-14T15:10:35.577Z" agent="Mozilla/5.0 (Windows NT 10.0; Win64; x64) AppleWebKit/537.36 (KHTML, like Gecko) Chrome/113.0.0.0 Safari/537.36" etag="KyKMRAbYEejrpigII8QV" version="21.3.0" type="device">
  <diagram name="PÃ¡gina-1" id="1dewbxEPoh3WT6u9to9m">
    <mxGraphModel dx="844" dy="445" grid="1" gridSize="10" guides="1" tooltips="1" connect="1" arrows="1" fold="1" page="1" pageScale="1" pageWidth="827" pageHeight="1169" math="0" shadow="0">
      <root>
        <mxCell id="0" />
        <mxCell id="1" parent="0" />
        <mxCell id="mdrjdak4Vv8NUD88eSQF-159" style="edgeStyle=orthogonalEdgeStyle;rounded=0;orthogonalLoop=1;jettySize=auto;html=1;dashed=1;endArrow=open;endFill=0;strokeColor=#198754;entryX=0.5;entryY=0;entryDx=0;entryDy=0;" parent="1" edge="1">
          <mxGeometry relative="1" as="geometry">
            <mxPoint x="380" y="274" as="sourcePoint" />
            <mxPoint x="721.5" y="539" as="targetPoint" />
            <Array as="points">
              <mxPoint x="380" y="269" />
              <mxPoint x="721" y="269" />
              <mxPoint x="721" y="479" />
              <mxPoint x="722" y="479" />
            </Array>
          </mxGeometry>
        </mxCell>
        <mxCell id="mdrjdak4Vv8NUD88eSQF-9" value="" style="rounded=0;whiteSpace=wrap;html=1;fillColor=none;fontFamily=Titillium Web;fontSource=https%3A%2F%2Ffonts.googleapis.com%2Fcss%3Ffamily%3DTitillium%2BWeb;strokeColor=#198754;strokeWidth=2;" parent="1" vertex="1">
          <mxGeometry x="200" y="70" width="590" height="790" as="geometry" />
        </mxCell>
        <mxCell id="mdrjdak4Vv8NUD88eSQF-11" style="edgeStyle=orthogonalEdgeStyle;rounded=0;orthogonalLoop=1;jettySize=auto;html=1;entryX=0.333;entryY=0.625;entryDx=0;entryDy=0;entryPerimeter=0;fontFamily=Titillium Web;fontSource=https%3A%2F%2Ffonts.googleapis.com%2Fcss%3Ffamily%3DTitillium%2BWeb;" parent="1" source="mdrjdak4Vv8NUD88eSQF-2" edge="1">
          <mxGeometry relative="1" as="geometry">
            <mxPoint x="299.96000000000015" y="570" as="targetPoint" />
          </mxGeometry>
        </mxCell>
        <mxCell id="mdrjdak4Vv8NUD88eSQF-58" value="" style="edgeStyle=orthogonalEdgeStyle;rounded=0;orthogonalLoop=1;jettySize=auto;fontColor=#198754;strokeColor=#198754;html=1;" parent="1" source="mdrjdak4Vv8NUD88eSQF-2" edge="1">
          <mxGeometry relative="1" as="geometry">
            <mxPoint x="70" y="210" as="targetPoint" />
          </mxGeometry>
        </mxCell>
        <mxCell id="mdrjdak4Vv8NUD88eSQF-2" value="No identificado" style="shape=umlActor;verticalLabelPosition=bottom;verticalAlign=top;outlineConnect=0;fontFamily=Titillium Web;fontSource=https%3A%2F%2Ffonts.googleapis.com%2Fcss%3Ffamily%3DTitillium%2BWeb;fontColor=#198754;strokeColor=#198754;html=1;fontStyle=1" parent="1" vertex="1">
          <mxGeometry x="140" y="540" width="30" height="60" as="geometry" />
        </mxCell>
        <mxCell id="mdrjdak4Vv8NUD88eSQF-57" value="" style="edgeStyle=orthogonalEdgeStyle;rounded=0;orthogonalLoop=1;jettySize=auto;fontColor=#198754;strokeColor=#198754;html=1;" parent="1" source="mdrjdak4Vv8NUD88eSQF-3" edge="1">
          <mxGeometry relative="1" as="geometry">
            <mxPoint x="70" y="210" as="targetPoint" />
          </mxGeometry>
        </mxCell>
        <mxCell id="mdrjdak4Vv8NUD88eSQF-3" value="Identificado" style="shape=umlActor;verticalLabelPosition=bottom;verticalAlign=top;outlineConnect=0;fontFamily=Titillium Web;fontSource=https%3A%2F%2Ffonts.googleapis.com%2Fcss%3Ffamily%3DTitillium%2BWeb;fontColor=#198754;strokeColor=#198754;html=1;fontStyle=1" parent="1" vertex="1">
          <mxGeometry x="140" y="340" width="30" height="60" as="geometry" />
        </mxCell>
        <mxCell id="mdrjdak4Vv8NUD88eSQF-72" style="edgeStyle=orthogonalEdgeStyle;rounded=0;orthogonalLoop=1;jettySize=auto;html=1;dashed=1;endArrow=open;endFill=0;strokeColor=#198754;" parent="1" edge="1">
          <mxGeometry relative="1" as="geometry">
            <mxPoint x="320" y="600" as="sourcePoint" />
            <mxPoint x="360" y="640" as="targetPoint" />
          </mxGeometry>
        </mxCell>
        <mxCell id="mdrjdak4Vv8NUD88eSQF-60" style="edgeStyle=orthogonalEdgeStyle;rounded=0;orthogonalLoop=1;jettySize=auto;html=1;entryX=0;entryY=0.5;entryDx=0;entryDy=0;dashed=1;endArrow=open;endFill=0;" parent="1" edge="1">
          <mxGeometry relative="1" as="geometry">
            <mxPoint x="310" y="370.55946811266926" as="sourcePoint" />
            <mxPoint x="410" y="345" as="targetPoint" />
            <Array as="points">
              <mxPoint x="310" y="345" />
            </Array>
          </mxGeometry>
        </mxCell>
        <mxCell id="mdrjdak4Vv8NUD88eSQF-45" style="edgeStyle=orthogonalEdgeStyle;rounded=0;orthogonalLoop=1;jettySize=auto;html=1;endArrow=open;endFill=0;dashed=1;" parent="1" edge="1">
          <mxGeometry relative="1" as="geometry">
            <mxPoint x="320" y="225" as="sourcePoint" />
            <mxPoint x="279.9999999999999" y="165" as="targetPoint" />
            <Array as="points">
              <mxPoint x="320" y="190" />
              <mxPoint x="280" y="190" />
            </Array>
          </mxGeometry>
        </mxCell>
        <mxCell id="mdrjdak4Vv8NUD88eSQF-50" style="edgeStyle=orthogonalEdgeStyle;rounded=0;orthogonalLoop=1;jettySize=auto;html=1;entryX=0.5;entryY=1;entryDx=0;entryDy=0;endArrow=open;endFill=0;dashed=1;" parent="1" edge="1">
          <mxGeometry relative="1" as="geometry">
            <mxPoint x="320" y="225" as="sourcePoint" />
            <mxPoint x="495" y="165" as="targetPoint" />
            <Array as="points">
              <mxPoint x="320" y="190" />
              <mxPoint x="495" y="190" />
            </Array>
          </mxGeometry>
        </mxCell>
        <mxCell id="mdrjdak4Vv8NUD88eSQF-51" style="edgeStyle=orthogonalEdgeStyle;rounded=0;orthogonalLoop=1;jettySize=auto;html=1;dashed=1;endArrow=open;endFill=0;" parent="1" edge="1">
          <mxGeometry relative="1" as="geometry">
            <mxPoint x="320" y="225" as="sourcePoint" />
            <mxPoint x="710" y="165" as="targetPoint" />
            <Array as="points">
              <mxPoint x="320" y="190" />
              <mxPoint x="710" y="190" />
            </Array>
          </mxGeometry>
        </mxCell>
        <mxCell id="mdrjdak4Vv8NUD88eSQF-35" value="Validar usuario" style="ellipse;fontFamily=Titillium Web;fontSource=https%3A%2F%2Ffonts.googleapis.com%2Fcss%3Ffamily%3DTitillium%2BWeb;fillColor=#1EA365;gradientColor=none;strokeColor=#105736;strokeWidth=1;fontSize=12;fontStyle=1;fontColor=#FFFFFF;labelBackgroundColor=none;labelBorderColor=none;whiteSpace=wrap;html=1;" parent="1" vertex="1">
          <mxGeometry x="659" y="530" width="125" height="85" as="geometry" />
        </mxCell>
        <mxCell id="mdrjdak4Vv8NUD88eSQF-55" value="El usuario se valida mediante un token JWT en todas las peticiones" style="shape=note;whiteSpace=wrap;html=1;backgroundOutline=1;darkOpacity=0.05;fillColor=#CCFFBF;strokeColor=#198754;fontColor=#198754;" parent="1" vertex="1">
          <mxGeometry x="680" y="720" width="90" height="130" as="geometry" />
        </mxCell>
        <mxCell id="mdrjdak4Vv8NUD88eSQF-1" value="Usuario" style="shape=umlActor;verticalLabelPosition=bottom;verticalAlign=top;outlineConnect=0;fontFamily=Titillium Web;fontSource=https%3A%2F%2Ffonts.googleapis.com%2Fcss%3Ffamily%3DTitillium%2BWeb;fontStyle=1;fontColor=#198754;strokeColor=#198754;html=1;" parent="1" vertex="1">
          <mxGeometry x="56" y="130" width="30" height="60" as="geometry" />
        </mxCell>
        <mxCell id="mdrjdak4Vv8NUD88eSQF-81" style="edgeStyle=orthogonalEdgeStyle;rounded=0;orthogonalLoop=1;jettySize=auto;html=1;endArrow=open;endFill=0;dashed=1;" parent="1" edge="1">
          <mxGeometry relative="1" as="geometry">
            <mxPoint x="320" y="225" as="sourcePoint" />
            <mxPoint x="280" y="165" as="targetPoint" />
            <Array as="points">
              <mxPoint x="320" y="190" />
              <mxPoint x="280" y="190" />
            </Array>
          </mxGeometry>
        </mxCell>
        <mxCell id="mdrjdak4Vv8NUD88eSQF-82" style="edgeStyle=orthogonalEdgeStyle;rounded=0;orthogonalLoop=1;jettySize=auto;html=1;dashed=1;endArrow=open;endFill=0;" parent="1" edge="1">
          <mxGeometry relative="1" as="geometry">
            <mxPoint x="320" y="225" as="sourcePoint" />
            <mxPoint x="710" y="165" as="targetPoint" />
            <Array as="points">
              <mxPoint x="320" y="190" />
              <mxPoint x="710" y="190" />
            </Array>
          </mxGeometry>
        </mxCell>
        <mxCell id="mdrjdak4Vv8NUD88eSQF-83" style="edgeStyle=orthogonalEdgeStyle;rounded=0;orthogonalLoop=1;jettySize=auto;html=1;entryX=0.5;entryY=1;entryDx=0;entryDy=0;endArrow=open;endFill=0;dashed=1;" parent="1" edge="1">
          <mxGeometry relative="1" as="geometry">
            <mxPoint x="320" y="225" as="sourcePoint" />
            <mxPoint x="495" y="165" as="targetPoint" />
            <Array as="points">
              <mxPoint x="320" y="190" />
              <mxPoint x="495" y="190" />
            </Array>
          </mxGeometry>
        </mxCell>
        <mxCell id="mdrjdak4Vv8NUD88eSQF-87" style="edgeStyle=orthogonalEdgeStyle;rounded=0;orthogonalLoop=1;jettySize=auto;html=1;entryX=0;entryY=0.5;entryDx=0;entryDy=0;dashed=1;endArrow=open;endFill=0;" parent="1" edge="1">
          <mxGeometry relative="1" as="geometry">
            <mxPoint x="310" y="371" as="sourcePoint" />
            <mxPoint x="410" y="345" as="targetPoint" />
            <Array as="points">
              <mxPoint x="310" y="345" />
            </Array>
          </mxGeometry>
        </mxCell>
        <mxCell id="mdrjdak4Vv8NUD88eSQF-88" style="edgeStyle=orthogonalEdgeStyle;rounded=0;orthogonalLoop=1;jettySize=auto;html=1;endArrow=open;endFill=0;dashed=1;" parent="1" edge="1">
          <mxGeometry relative="1" as="geometry">
            <mxPoint x="320" y="225" as="sourcePoint" />
            <mxPoint x="280" y="165" as="targetPoint" />
            <Array as="points">
              <mxPoint x="320" y="190" />
              <mxPoint x="280" y="190" />
            </Array>
          </mxGeometry>
        </mxCell>
        <mxCell id="mdrjdak4Vv8NUD88eSQF-89" style="edgeStyle=orthogonalEdgeStyle;rounded=0;orthogonalLoop=1;jettySize=auto;html=1;dashed=1;endArrow=open;endFill=0;" parent="1" edge="1">
          <mxGeometry relative="1" as="geometry">
            <mxPoint x="320" y="225" as="sourcePoint" />
            <mxPoint x="710" y="165" as="targetPoint" />
            <Array as="points">
              <mxPoint x="320" y="190" />
              <mxPoint x="710" y="190" />
            </Array>
          </mxGeometry>
        </mxCell>
        <mxCell id="mdrjdak4Vv8NUD88eSQF-90" style="edgeStyle=orthogonalEdgeStyle;rounded=0;orthogonalLoop=1;jettySize=auto;html=1;entryX=0.5;entryY=1;entryDx=0;entryDy=0;endArrow=open;endFill=0;dashed=1;" parent="1" edge="1">
          <mxGeometry relative="1" as="geometry">
            <mxPoint x="320" y="225" as="sourcePoint" />
            <mxPoint x="495" y="165" as="targetPoint" />
            <Array as="points">
              <mxPoint x="320" y="190" />
              <mxPoint x="495" y="190" />
            </Array>
          </mxGeometry>
        </mxCell>
        <mxCell id="mdrjdak4Vv8NUD88eSQF-94" style="edgeStyle=orthogonalEdgeStyle;rounded=0;orthogonalLoop=1;jettySize=auto;html=1;entryX=0;entryY=0.5;entryDx=0;entryDy=0;dashed=1;endArrow=open;endFill=0;" parent="1" edge="1">
          <mxGeometry relative="1" as="geometry">
            <mxPoint x="310" y="371" as="sourcePoint" />
            <mxPoint x="410" y="345" as="targetPoint" />
            <Array as="points">
              <mxPoint x="310" y="345" />
            </Array>
          </mxGeometry>
        </mxCell>
        <mxCell id="mdrjdak4Vv8NUD88eSQF-96" style="edgeStyle=orthogonalEdgeStyle;rounded=0;orthogonalLoop=1;jettySize=auto;html=1;endArrow=open;endFill=0;dashed=1;" parent="1" edge="1">
          <mxGeometry relative="1" as="geometry">
            <mxPoint x="320" y="225" as="sourcePoint" />
            <mxPoint x="280" y="165" as="targetPoint" />
            <Array as="points">
              <mxPoint x="320" y="190" />
              <mxPoint x="280" y="190" />
            </Array>
          </mxGeometry>
        </mxCell>
        <mxCell id="mdrjdak4Vv8NUD88eSQF-97" style="edgeStyle=orthogonalEdgeStyle;rounded=0;orthogonalLoop=1;jettySize=auto;html=1;dashed=1;endArrow=open;endFill=0;" parent="1" edge="1">
          <mxGeometry relative="1" as="geometry">
            <mxPoint x="320" y="225" as="sourcePoint" />
            <mxPoint x="710" y="165" as="targetPoint" />
            <Array as="points">
              <mxPoint x="320" y="190" />
              <mxPoint x="710" y="190" />
            </Array>
          </mxGeometry>
        </mxCell>
        <mxCell id="mdrjdak4Vv8NUD88eSQF-98" style="edgeStyle=orthogonalEdgeStyle;rounded=0;orthogonalLoop=1;jettySize=auto;html=1;entryX=0.5;entryY=1;entryDx=0;entryDy=0;endArrow=open;endFill=0;dashed=1;" parent="1" edge="1">
          <mxGeometry relative="1" as="geometry">
            <mxPoint x="320" y="225" as="sourcePoint" />
            <mxPoint x="495" y="165" as="targetPoint" />
            <Array as="points">
              <mxPoint x="320" y="190" />
              <mxPoint x="495" y="190" />
            </Array>
          </mxGeometry>
        </mxCell>
        <mxCell id="mdrjdak4Vv8NUD88eSQF-102" style="edgeStyle=orthogonalEdgeStyle;rounded=0;orthogonalLoop=1;jettySize=auto;html=1;entryX=0;entryY=0.5;entryDx=0;entryDy=0;dashed=1;endArrow=open;endFill=0;" parent="1" edge="1">
          <mxGeometry relative="1" as="geometry">
            <mxPoint x="310" y="371" as="sourcePoint" />
            <mxPoint x="410" y="345" as="targetPoint" />
            <Array as="points">
              <mxPoint x="310" y="345" />
            </Array>
          </mxGeometry>
        </mxCell>
        <mxCell id="mdrjdak4Vv8NUD88eSQF-108" style="edgeStyle=orthogonalEdgeStyle;rounded=0;orthogonalLoop=1;jettySize=auto;html=1;endArrow=open;endFill=0;dashed=1;" parent="1" edge="1">
          <mxGeometry relative="1" as="geometry">
            <mxPoint x="320" y="225" as="sourcePoint" />
            <mxPoint x="280" y="165" as="targetPoint" />
            <Array as="points">
              <mxPoint x="320" y="190" />
              <mxPoint x="280" y="190" />
            </Array>
          </mxGeometry>
        </mxCell>
        <mxCell id="mdrjdak4Vv8NUD88eSQF-109" style="edgeStyle=orthogonalEdgeStyle;rounded=0;orthogonalLoop=1;jettySize=auto;html=1;dashed=1;endArrow=open;endFill=0;" parent="1" edge="1">
          <mxGeometry relative="1" as="geometry">
            <mxPoint x="320" y="225" as="sourcePoint" />
            <mxPoint x="710" y="165" as="targetPoint" />
            <Array as="points">
              <mxPoint x="320" y="190" />
              <mxPoint x="710" y="190" />
            </Array>
          </mxGeometry>
        </mxCell>
        <mxCell id="mdrjdak4Vv8NUD88eSQF-110" style="edgeStyle=orthogonalEdgeStyle;rounded=0;orthogonalLoop=1;jettySize=auto;html=1;entryX=0.5;entryY=1;entryDx=0;entryDy=0;endArrow=open;endFill=0;dashed=1;" parent="1" edge="1">
          <mxGeometry relative="1" as="geometry">
            <mxPoint x="320" y="225" as="sourcePoint" />
            <mxPoint x="495" y="165" as="targetPoint" />
            <Array as="points">
              <mxPoint x="320" y="190" />
              <mxPoint x="495" y="190" />
            </Array>
          </mxGeometry>
        </mxCell>
        <mxCell id="mdrjdak4Vv8NUD88eSQF-114" style="edgeStyle=orthogonalEdgeStyle;rounded=0;orthogonalLoop=1;jettySize=auto;html=1;entryX=0;entryY=0.5;entryDx=0;entryDy=0;dashed=1;endArrow=open;endFill=0;" parent="1" edge="1">
          <mxGeometry relative="1" as="geometry">
            <mxPoint x="310" y="371" as="sourcePoint" />
            <mxPoint x="410" y="345" as="targetPoint" />
            <Array as="points">
              <mxPoint x="310" y="345" />
            </Array>
          </mxGeometry>
        </mxCell>
        <mxCell id="mdrjdak4Vv8NUD88eSQF-123" style="edgeStyle=orthogonalEdgeStyle;rounded=0;orthogonalLoop=1;jettySize=auto;html=1;endArrow=open;endFill=0;dashed=1;" parent="1" edge="1">
          <mxGeometry relative="1" as="geometry">
            <mxPoint x="320" y="225" as="sourcePoint" />
            <mxPoint x="280" y="165" as="targetPoint" />
            <Array as="points">
              <mxPoint x="320" y="190" />
              <mxPoint x="280" y="190" />
            </Array>
          </mxGeometry>
        </mxCell>
        <mxCell id="mdrjdak4Vv8NUD88eSQF-124" style="edgeStyle=orthogonalEdgeStyle;rounded=0;orthogonalLoop=1;jettySize=auto;html=1;dashed=1;endArrow=open;endFill=0;" parent="1" edge="1">
          <mxGeometry relative="1" as="geometry">
            <mxPoint x="320" y="225" as="sourcePoint" />
            <mxPoint x="710" y="165" as="targetPoint" />
            <Array as="points">
              <mxPoint x="320" y="190" />
              <mxPoint x="710" y="190" />
            </Array>
          </mxGeometry>
        </mxCell>
        <mxCell id="mdrjdak4Vv8NUD88eSQF-125" style="edgeStyle=orthogonalEdgeStyle;rounded=0;orthogonalLoop=1;jettySize=auto;html=1;entryX=0.5;entryY=1;entryDx=0;entryDy=0;endArrow=open;endFill=0;dashed=1;" parent="1" edge="1">
          <mxGeometry relative="1" as="geometry">
            <mxPoint x="320" y="225" as="sourcePoint" />
            <mxPoint x="495" y="165" as="targetPoint" />
            <Array as="points">
              <mxPoint x="320" y="190" />
              <mxPoint x="495" y="190" />
            </Array>
          </mxGeometry>
        </mxCell>
        <mxCell id="mdrjdak4Vv8NUD88eSQF-129" style="edgeStyle=orthogonalEdgeStyle;rounded=0;orthogonalLoop=1;jettySize=auto;html=1;entryX=0;entryY=0.5;entryDx=0;entryDy=0;dashed=1;endArrow=open;endFill=0;" parent="1" edge="1">
          <mxGeometry relative="1" as="geometry">
            <mxPoint x="310" y="371" as="sourcePoint" />
            <mxPoint x="410" y="345" as="targetPoint" />
            <Array as="points">
              <mxPoint x="310" y="345" />
            </Array>
          </mxGeometry>
        </mxCell>
        <mxCell id="mdrjdak4Vv8NUD88eSQF-138" style="edgeStyle=orthogonalEdgeStyle;rounded=0;orthogonalLoop=1;jettySize=auto;html=1;entryX=0.333;entryY=0.625;entryDx=0;entryDy=0;entryPerimeter=0;fontFamily=Titillium Web;fontSource=https%3A%2F%2Ffonts.googleapis.com%2Fcss%3Ffamily%3DTitillium%2BWeb;" parent="1" edge="1">
          <mxGeometry relative="1" as="geometry">
            <mxPoint x="170" y="570" as="sourcePoint" />
            <mxPoint x="300" y="570" as="targetPoint" />
          </mxGeometry>
        </mxCell>
        <mxCell id="mdrjdak4Vv8NUD88eSQF-139" style="edgeStyle=orthogonalEdgeStyle;rounded=0;orthogonalLoop=1;jettySize=auto;html=1;endArrow=open;endFill=0;dashed=1;" parent="1" edge="1">
          <mxGeometry relative="1" as="geometry">
            <mxPoint x="320" y="225" as="sourcePoint" />
            <mxPoint x="280" y="165" as="targetPoint" />
            <Array as="points">
              <mxPoint x="320" y="190" />
              <mxPoint x="280" y="190" />
            </Array>
          </mxGeometry>
        </mxCell>
        <mxCell id="mdrjdak4Vv8NUD88eSQF-140" style="edgeStyle=orthogonalEdgeStyle;rounded=0;orthogonalLoop=1;jettySize=auto;html=1;dashed=1;endArrow=open;endFill=0;" parent="1" edge="1">
          <mxGeometry relative="1" as="geometry">
            <mxPoint x="320" y="225" as="sourcePoint" />
            <mxPoint x="710" y="165" as="targetPoint" />
            <Array as="points">
              <mxPoint x="320" y="190" />
              <mxPoint x="710" y="190" />
            </Array>
          </mxGeometry>
        </mxCell>
        <mxCell id="mdrjdak4Vv8NUD88eSQF-141" style="edgeStyle=orthogonalEdgeStyle;rounded=0;orthogonalLoop=1;jettySize=auto;html=1;entryX=0.5;entryY=1;entryDx=0;entryDy=0;endArrow=open;endFill=0;dashed=1;" parent="1" edge="1">
          <mxGeometry relative="1" as="geometry">
            <mxPoint x="320" y="225" as="sourcePoint" />
            <mxPoint x="495" y="165" as="targetPoint" />
            <Array as="points">
              <mxPoint x="320" y="190" />
              <mxPoint x="495" y="190" />
            </Array>
          </mxGeometry>
        </mxCell>
        <mxCell id="mdrjdak4Vv8NUD88eSQF-145" style="edgeStyle=orthogonalEdgeStyle;rounded=0;orthogonalLoop=1;jettySize=auto;html=1;entryX=0;entryY=0.5;entryDx=0;entryDy=0;dashed=1;endArrow=open;endFill=0;" parent="1" edge="1">
          <mxGeometry relative="1" as="geometry">
            <mxPoint x="310" y="371" as="sourcePoint" />
            <mxPoint x="410" y="345" as="targetPoint" />
            <Array as="points">
              <mxPoint x="310" y="345" />
            </Array>
          </mxGeometry>
        </mxCell>
        <mxCell id="mdrjdak4Vv8NUD88eSQF-154" style="edgeStyle=orthogonalEdgeStyle;rounded=0;orthogonalLoop=1;jettySize=auto;html=1;entryX=0.333;entryY=0.625;entryDx=0;entryDy=0;entryPerimeter=0;fontFamily=Titillium Web;fontSource=https%3A%2F%2Ffonts.googleapis.com%2Fcss%3Ffamily%3DTitillium%2BWeb;" parent="1" edge="1">
          <mxGeometry relative="1" as="geometry">
            <mxPoint x="170" y="570" as="sourcePoint" />
            <mxPoint x="300" y="570" as="targetPoint" />
          </mxGeometry>
        </mxCell>
        <mxCell id="mdrjdak4Vv8NUD88eSQF-156" style="edgeStyle=orthogonalEdgeStyle;rounded=0;orthogonalLoop=1;jettySize=auto;html=1;endArrow=open;endFill=0;dashed=1;strokeColor=#198754;" parent="1" edge="1">
          <mxGeometry relative="1" as="geometry">
            <mxPoint x="320" y="225" as="sourcePoint" />
            <mxPoint x="280" y="165" as="targetPoint" />
            <Array as="points">
              <mxPoint x="320" y="190" />
              <mxPoint x="280" y="190" />
            </Array>
          </mxGeometry>
        </mxCell>
        <mxCell id="mdrjdak4Vv8NUD88eSQF-157" style="edgeStyle=orthogonalEdgeStyle;rounded=0;orthogonalLoop=1;jettySize=auto;html=1;dashed=1;endArrow=open;endFill=0;strokeColor=#198754;" parent="1" edge="1">
          <mxGeometry relative="1" as="geometry">
            <mxPoint x="320" y="225" as="sourcePoint" />
            <mxPoint x="710" y="165" as="targetPoint" />
            <Array as="points">
              <mxPoint x="320" y="190" />
              <mxPoint x="710" y="190" />
            </Array>
          </mxGeometry>
        </mxCell>
        <mxCell id="mdrjdak4Vv8NUD88eSQF-158" style="edgeStyle=orthogonalEdgeStyle;rounded=0;orthogonalLoop=1;jettySize=auto;html=1;entryX=0.5;entryY=1;entryDx=0;entryDy=0;endArrow=open;endFill=0;dashed=1;strokeColor=#198754;" parent="1" edge="1">
          <mxGeometry relative="1" as="geometry">
            <mxPoint x="320" y="225" as="sourcePoint" />
            <mxPoint x="495" y="165" as="targetPoint" />
            <Array as="points">
              <mxPoint x="320" y="190" />
              <mxPoint x="495" y="190" />
            </Array>
          </mxGeometry>
        </mxCell>
        <mxCell id="mdrjdak4Vv8NUD88eSQF-160" style="edgeStyle=orthogonalEdgeStyle;rounded=0;orthogonalLoop=1;jettySize=auto;html=1;endArrow=open;endFill=0;dashed=1;strokeColor=#198754;exitX=0.5;exitY=1;exitDx=0;exitDy=0;" parent="1" edge="1">
          <mxGeometry relative="1" as="geometry">
            <mxPoint x="320" y="450" as="sourcePoint" />
            <mxPoint x="721" y="530" as="targetPoint" />
            <Array as="points">
              <mxPoint x="320" y="480" />
              <mxPoint x="721" y="480" />
              <mxPoint x="721" y="530" />
            </Array>
          </mxGeometry>
        </mxCell>
        <mxCell id="mdrjdak4Vv8NUD88eSQF-162" style="edgeStyle=orthogonalEdgeStyle;rounded=0;orthogonalLoop=1;jettySize=auto;html=1;entryX=0;entryY=0.5;entryDx=0;entryDy=0;dashed=1;endArrow=open;endFill=0;strokeColor=#198754;" parent="1" edge="1">
          <mxGeometry relative="1" as="geometry">
            <mxPoint x="310" y="371" as="sourcePoint" />
            <mxPoint x="410" y="345" as="targetPoint" />
            <Array as="points">
              <mxPoint x="310" y="345" />
            </Array>
          </mxGeometry>
        </mxCell>
        <mxCell id="mdrjdak4Vv8NUD88eSQF-164" style="edgeStyle=orthogonalEdgeStyle;rounded=0;orthogonalLoop=1;jettySize=auto;html=1;endArrow=none;endFill=0;strokeColor=#198754;" parent="1" edge="1">
          <mxGeometry relative="1" as="geometry">
            <mxPoint x="170" y="370" as="sourcePoint" />
            <mxPoint x="260" y="410" as="targetPoint" />
            <Array as="points">
              <mxPoint x="170" y="371" />
              <mxPoint x="210" y="371" />
              <mxPoint x="210" y="410" />
            </Array>
          </mxGeometry>
        </mxCell>
        <mxCell id="mdrjdak4Vv8NUD88eSQF-165" style="edgeStyle=orthogonalEdgeStyle;rounded=0;orthogonalLoop=1;jettySize=auto;html=1;entryX=0;entryY=0.5;entryDx=0;entryDy=0;endArrow=none;endFill=0;strokeColor=#198754;" parent="1" edge="1">
          <mxGeometry relative="1" as="geometry">
            <mxPoint x="170" y="370" as="sourcePoint" />
            <mxPoint x="260" y="265" as="targetPoint" />
            <Array as="points">
              <mxPoint x="170" y="371" />
              <mxPoint x="210" y="371" />
              <mxPoint x="210" y="265" />
            </Array>
          </mxGeometry>
        </mxCell>
        <mxCell id="mdrjdak4Vv8NUD88eSQF-166" style="edgeStyle=orthogonalEdgeStyle;rounded=0;orthogonalLoop=1;jettySize=auto;html=1;entryX=1;entryY=0;entryDx=0;entryDy=0;dashed=1;endArrow=open;endFill=0;strokeColor=#198754;" parent="1" edge="1">
          <mxGeometry relative="1" as="geometry">
            <mxPoint x="660" y="570" as="sourcePoint" />
            <mxPoint x="402" y="652" as="targetPoint" />
            <Array as="points">
              <mxPoint x="660" y="571" />
              <mxPoint x="402" y="571" />
            </Array>
          </mxGeometry>
        </mxCell>
        <mxCell id="mdrjdak4Vv8NUD88eSQF-167" style="edgeStyle=orthogonalEdgeStyle;rounded=0;orthogonalLoop=1;jettySize=auto;html=1;entryX=0.44;entryY=0;entryDx=0;entryDy=0;dashed=1;endArrow=open;endFill=0;strokeColor=#198754;entryPerimeter=0;" parent="1" edge="1" target="mdrjdak4Vv8NUD88eSQF-193">
          <mxGeometry relative="1" as="geometry">
            <mxPoint x="500" y="380" as="sourcePoint" />
            <mxPoint x="500" y="580" as="targetPoint" />
            <Array as="points" />
          </mxGeometry>
        </mxCell>
        <mxCell id="mdrjdak4Vv8NUD88eSQF-168" style="edgeStyle=orthogonalEdgeStyle;rounded=0;orthogonalLoop=1;jettySize=auto;html=1;entryX=0.547;entryY=1;entryDx=0;entryDy=0;endArrow=none;endFill=0;dashed=1;entryPerimeter=0;strokeColor=#198754;" parent="1" edge="1">
          <mxGeometry relative="1" as="geometry">
            <mxPoint x="719.25" y="720" as="sourcePoint" />
            <mxPoint x="720.25" y="610" as="targetPoint" />
            <Array as="points">
              <mxPoint x="719" y="666" />
              <mxPoint x="719" y="610" />
            </Array>
          </mxGeometry>
        </mxCell>
        <mxCell id="mdrjdak4Vv8NUD88eSQF-169" style="edgeStyle=orthogonalEdgeStyle;rounded=0;orthogonalLoop=1;jettySize=auto;html=1;endArrow=block;endFill=0;strokeColor=#198754;entryX=0.5;entryY=0;entryDx=0;entryDy=0;" parent="1" edge="1">
          <mxGeometry relative="1" as="geometry">
            <mxPoint x="500" y="720" as="sourcePoint" />
            <mxPoint x="425" y="770" as="targetPoint" />
            <Array as="points">
              <mxPoint x="500" y="740" />
              <mxPoint x="425" y="740" />
            </Array>
          </mxGeometry>
        </mxCell>
        <mxCell id="mdrjdak4Vv8NUD88eSQF-170" style="edgeStyle=orthogonalEdgeStyle;rounded=0;orthogonalLoop=1;jettySize=auto;html=1;endArrow=block;endFill=0;strokeColor=#198754;" parent="1" edge="1">
          <mxGeometry relative="1" as="geometry">
            <mxPoint x="360" y="720" as="sourcePoint" />
            <mxPoint x="425" y="770" as="targetPoint" />
            <Array as="points">
              <mxPoint x="360" y="740" />
              <mxPoint x="425" y="740" />
            </Array>
          </mxGeometry>
        </mxCell>
        <mxCell id="mdrjdak4Vv8NUD88eSQF-171" style="edgeStyle=orthogonalEdgeStyle;rounded=0;orthogonalLoop=1;jettySize=auto;html=1;entryX=0.333;entryY=0.625;entryDx=0;entryDy=0;entryPerimeter=0;fontFamily=Titillium Web;fontSource=https%3A%2F%2Ffonts.googleapis.com%2Fcss%3Ffamily%3DTitillium%2BWeb;strokeColor=#198754;" parent="1" edge="1">
          <mxGeometry relative="1" as="geometry">
            <mxPoint x="170" y="570" as="sourcePoint" />
            <mxPoint x="300" y="570" as="targetPoint" />
          </mxGeometry>
        </mxCell>
        <mxCell id="mdrjdak4Vv8NUD88eSQF-174" value="&amp;lt;&amp;lt;include&amp;gt;&amp;gt;" style="text;html=1;align=center;verticalAlign=middle;resizable=0;points=[];autosize=1;strokeColor=none;fillColor=none;fontColor=#198754;fontStyle=1;fontSize=13;" parent="1" vertex="1">
          <mxGeometry x="220" y="190" width="100" height="30" as="geometry" />
        </mxCell>
        <mxCell id="mdrjdak4Vv8NUD88eSQF-175" value="&amp;lt;&amp;lt;extend&amp;gt;&amp;gt;" style="text;html=1;align=center;verticalAlign=middle;resizable=0;points=[];autosize=1;strokeColor=none;fillColor=none;fontColor=#198754;fontStyle=1;fontSize=13;" parent="1" vertex="1">
          <mxGeometry x="445" y="190" width="100" height="30" as="geometry" />
        </mxCell>
        <mxCell id="mdrjdak4Vv8NUD88eSQF-176" value="&amp;lt;&amp;lt;include&amp;gt;&amp;gt;" style="text;html=1;align=center;verticalAlign=middle;resizable=0;points=[];autosize=1;strokeColor=none;fillColor=none;fontColor=#198754;fontStyle=1;fontSize=13;" parent="1" vertex="1">
          <mxGeometry x="660" y="190" width="100" height="30" as="geometry" />
        </mxCell>
        <mxCell id="mdrjdak4Vv8NUD88eSQF-177" value="&amp;lt;&amp;lt;include&amp;gt;&amp;gt;" style="text;html=1;align=center;verticalAlign=middle;resizable=0;points=[];autosize=1;strokeColor=none;fillColor=none;fontColor=#198754;fontStyle=1;fontSize=13;" parent="1" vertex="1">
          <mxGeometry x="445" y="230" width="100" height="30" as="geometry" />
        </mxCell>
        <mxCell id="mdrjdak4Vv8NUD88eSQF-178" value="&amp;lt;&amp;lt;include&amp;gt;&amp;gt;" style="text;html=1;align=center;verticalAlign=middle;resizable=0;points=[];autosize=1;strokeColor=none;fillColor=none;fontColor=#198754;fontStyle=1;fontSize=13;" parent="1" vertex="1">
          <mxGeometry x="382.5" y="450" width="100" height="30" as="geometry" />
        </mxCell>
        <mxCell id="mdrjdak4Vv8NUD88eSQF-179" value="&amp;lt;&amp;lt;extend&amp;gt;&amp;gt;" style="text;html=1;align=center;verticalAlign=middle;resizable=0;points=[];autosize=1;strokeColor=none;fillColor=none;fontColor=#198754;fontStyle=1;fontSize=13;" parent="1" vertex="1">
          <mxGeometry x="450" y="510" width="100" height="30" as="geometry" />
        </mxCell>
        <mxCell id="mdrjdak4Vv8NUD88eSQF-180" value="&amp;lt;&amp;lt;extend&amp;gt;&amp;gt;" style="text;html=1;align=center;verticalAlign=middle;resizable=0;points=[];autosize=1;strokeColor=none;fillColor=none;fontColor=#198754;fontStyle=1;fontSize=13;" parent="1" vertex="1">
          <mxGeometry x="545" y="540" width="100" height="30" as="geometry" />
        </mxCell>
        <mxCell id="mdrjdak4Vv8NUD88eSQF-181" value="&amp;lt;&amp;lt;extend&amp;gt;&amp;gt;" style="text;html=1;align=center;verticalAlign=middle;resizable=0;points=[];autosize=1;strokeColor=none;fillColor=none;fontColor=#198754;fontStyle=1;fontSize=13;" parent="1" vertex="1">
          <mxGeometry x="250" y="615" width="100" height="30" as="geometry" />
        </mxCell>
        <mxCell id="mdrjdak4Vv8NUD88eSQF-185" value="Listar lasÂ  Ãºltimas 10 partidas" style="ellipse;fontFamily=Titillium Web;fontSource=https%3A%2F%2Ffonts.googleapis.com%2Fcss%3Ffamily%3DTitillium%2BWeb;fillColor=#198754;gradientColor=none;strokeColor=#198754;strokeWidth=0;fontSize=12;fontStyle=1;fontColor=#FFFFFF;labelBackgroundColor=none;labelBorderColor=none;whiteSpace=wrap;html=1;" parent="1" vertex="1">
          <mxGeometry x="220" y="80" width="125" height="85" as="geometry" />
        </mxCell>
        <mxCell id="mdrjdak4Vv8NUD88eSQF-186" value="Acceder al histÃ³rico de partidas" style="ellipse;fontFamily=Titillium Web;fontSource=https%3A%2F%2Ffonts.googleapis.com%2Fcss%3Ffamily%3DTitillium%2BWeb;fillColor=#198754;gradientColor=none;strokeColor=#198754;strokeWidth=0;fontSize=12;fontStyle=1;fontColor=#FFFFFF;labelBackgroundColor=none;labelBorderColor=none;whiteSpace=wrap;html=1;" parent="1" vertex="1">
          <mxGeometry x="257.5" y="220" width="125" height="85" as="geometry" />
        </mxCell>
        <mxCell id="mdrjdak4Vv8NUD88eSQF-187" value="Listar todas las partidas" style="ellipse;fontFamily=Titillium Web;fontSource=https%3A%2F%2Ffonts.googleapis.com%2Fcss%3Ffamily%3DTitillium%2BWeb;fillColor=#198754;gradientColor=none;strokeColor=#198754;strokeWidth=0;fontSize=12;fontStyle=1;fontColor=#FFFFFF;labelBackgroundColor=none;labelBorderColor=none;whiteSpace=wrap;html=1;" parent="1" vertex="1">
          <mxGeometry x="435" y="80" width="125" height="85" as="geometry" />
        </mxCell>
        <mxCell id="mdrjdak4Vv8NUD88eSQF-188" value="Listar las 3 mejores partidas" style="ellipse;fontFamily=Titillium Web;fontSource=https%3A%2F%2Ffonts.googleapis.com%2Fcss%3Ffamily%3DTitillium%2BWeb;fillColor=#198754;gradientColor=none;strokeColor=#198754;strokeWidth=0;fontSize=12;fontStyle=1;fontColor=#FFFFFF;labelBackgroundColor=none;labelBorderColor=none;whiteSpace=wrap;html=1;" parent="1" vertex="1">
          <mxGeometry x="645" y="80" width="125" height="85" as="geometry" />
        </mxCell>
        <mxCell id="mdrjdak4Vv8NUD88eSQF-189" value="Jugar una partida" style="ellipse;fontFamily=Titillium Web;fontSource=https%3A%2F%2Ffonts.googleapis.com%2Fcss%3Ffamily%3DTitillium%2BWeb;fillColor=#198754;gradientColor=none;strokeColor=#198754;strokeWidth=0;fontSize=12;fontStyle=1;fontColor=#FFFFFF;labelBackgroundColor=none;labelBorderColor=none;whiteSpace=wrap;html=1;" parent="1" vertex="1">
          <mxGeometry x="257.5" y="365" width="125" height="85" as="geometry" />
        </mxCell>
        <mxCell id="mdrjdak4Vv8NUD88eSQF-190" value="Intentar adivinar la palabar" style="ellipse;fontFamily=Titillium Web;fontSource=https%3A%2F%2Ffonts.googleapis.com%2Fcss%3Ffamily%3DTitillium%2BWeb;fillColor=#198754;gradientColor=none;strokeColor=#198754;strokeWidth=0;fontSize=12;fontStyle=1;fontColor=#FFFFFF;labelBackgroundColor=none;labelBorderColor=none;whiteSpace=wrap;html=1;" parent="1" vertex="1">
          <mxGeometry x="410" y="302.5" width="125" height="85" as="geometry" />
        </mxCell>
        <mxCell id="mdrjdak4Vv8NUD88eSQF-191" value="Iniciar sesiÃ³n" style="ellipse;fontFamily=Titillium Web;fontSource=https%3A%2F%2Ffonts.googleapis.com%2Fcss%3Ffamily%3DTitillium%2BWeb;fillColor=#198754;gradientColor=none;strokeColor=#198754;strokeWidth=0;fontSize=12;fontStyle=1;fontColor=#FFFFFF;labelBackgroundColor=none;labelBorderColor=none;whiteSpace=wrap;html=1;" parent="1" vertex="1">
          <mxGeometry x="257.5" y="527.5" width="125" height="85" as="geometry" />
        </mxCell>
        <mxCell id="mdrjdak4Vv8NUD88eSQF-192" value="Mostrar error de autenticaciÃ³n" style="ellipse;fontFamily=Titillium Web;fontSource=https%3A%2F%2Ffonts.googleapis.com%2Fcss%3Ffamily%3DTitillium%2BWeb;fillColor=#1EA365;gradientColor=none;strokeColor=#105736;strokeWidth=1;fontSize=12;fontStyle=1;fontColor=#FFFFFF;labelBackgroundColor=none;labelBorderColor=none;whiteSpace=wrap;html=1;" parent="1" vertex="1">
          <mxGeometry x="300" y="640" width="125" height="85" as="geometry" />
        </mxCell>
        <mxCell id="mdrjdak4Vv8NUD88eSQF-193" value="Mostar error de palabara inexistente" style="ellipse;fontFamily=Titillium Web;fontSource=https%3A%2F%2Ffonts.googleapis.com%2Fcss%3Ffamily%3DTitillium%2BWeb;fillColor=#1EA365;gradientColor=none;strokeColor=#105736;strokeWidth=1;fontSize=12;fontStyle=1;fontColor=#FFFFFF;labelBackgroundColor=none;labelBorderColor=none;whiteSpace=wrap;html=1;" parent="1" vertex="1">
          <mxGeometry x="445" y="640" width="125" height="85" as="geometry" />
        </mxCell>
        <mxCell id="mdrjdak4Vv8NUD88eSQF-194" value="Mostrar error" style="ellipse;fontFamily=Titillium Web;fontSource=https%3A%2F%2Ffonts.googleapis.com%2Fcss%3Ffamily%3DTitillium%2BWeb;fillColor=#1C995F;gradientColor=none;strokeColor=#105736;strokeWidth=2;fontSize=12;fontStyle=1;fontColor=#FFFFFF;labelBackgroundColor=none;labelBorderColor=none;whiteSpace=wrap;html=1;" parent="1" vertex="1">
          <mxGeometry x="362" y="770" width="125" height="85" as="geometry" />
        </mxCell>
        <mxCell id="mdrjdak4Vv8NUD88eSQF-195" value="Listar lasÂ  Ãºltimas 10 partidas" style="ellipse;fontFamily=Titillium Web;fontSource=https%3A%2F%2Ffonts.googleapis.com%2Fcss%3Ffamily%3DTitillium%2BWeb;fillColor=#198754;gradientColor=none;strokeColor=#198754;strokeWidth=0;fontSize=12;fontStyle=1;fontColor=#FFFFFF;labelBackgroundColor=none;labelBorderColor=none;whiteSpace=wrap;html=1;" parent="1" vertex="1">
          <mxGeometry x="220" y="80" width="125" height="85" as="geometry" />
        </mxCell>
        <mxCell id="mdrjdak4Vv8NUD88eSQF-196" value="Listar lasÂ  Ãºltimas 10 partidas" style="ellipse;fontFamily=Titillium Web;fontSource=https%3A%2F%2Ffonts.googleapis.com%2Fcss%3Ffamily%3DTitillium%2BWeb;fillColor=#198754;gradientColor=none;strokeColor=#198754;strokeWidth=0;fontSize=12;fontStyle=1;fontColor=#FFFFFF;labelBackgroundColor=none;labelBorderColor=none;whiteSpace=wrap;html=1;" parent="1" vertex="1">
          <mxGeometry x="220" y="80" width="125" height="85" as="geometry" />
        </mxCell>
        <mxCell id="mdrjdak4Vv8NUD88eSQF-197" value="Listar todas las partidas" style="ellipse;fontFamily=Titillium Web;fontSource=https%3A%2F%2Ffonts.googleapis.com%2Fcss%3Ffamily%3DTitillium%2BWeb;fillColor=#198754;gradientColor=none;strokeColor=#198754;strokeWidth=0;fontSize=12;fontStyle=1;fontColor=#FFFFFF;labelBackgroundColor=none;labelBorderColor=none;whiteSpace=wrap;html=1;" parent="1" vertex="1">
          <mxGeometry x="435" y="80" width="125" height="85" as="geometry" />
        </mxCell>
        <mxCell id="mdrjdak4Vv8NUD88eSQF-198" value="Listar las 3 mejores partidas" style="ellipse;fontFamily=Titillium Web;fontSource=https%3A%2F%2Ffonts.googleapis.com%2Fcss%3Ffamily%3DTitillium%2BWeb;fillColor=#198754;gradientColor=none;strokeColor=#198754;strokeWidth=0;fontSize=12;fontStyle=1;fontColor=#FFFFFF;labelBackgroundColor=none;labelBorderColor=none;whiteSpace=wrap;html=1;" parent="1" vertex="1">
          <mxGeometry x="645" y="80" width="125" height="85" as="geometry" />
        </mxCell>
        <mxCell id="mdrjdak4Vv8NUD88eSQF-199" value="Acceder al histÃ³rico de partidas" style="ellipse;fontFamily=Titillium Web;fontSource=https%3A%2F%2Ffonts.googleapis.com%2Fcss%3Ffamily%3DTitillium%2BWeb;fillColor=#198754;gradientColor=none;strokeColor=#198754;strokeWidth=0;fontSize=12;fontStyle=1;fontColor=#FFFFFF;labelBackgroundColor=none;labelBorderColor=none;whiteSpace=wrap;html=1;" parent="1" vertex="1">
          <mxGeometry x="257.5" y="220" width="125" height="85" as="geometry" />
        </mxCell>
        <mxCell id="mdrjdak4Vv8NUD88eSQF-200" value="Listar lasÂ  Ãºltimas 10 partidas" style="ellipse;fontFamily=Titillium Web;fontSource=https%3A%2F%2Ffonts.googleapis.com%2Fcss%3Ffamily%3DTitillium%2BWeb;fillColor=#198754;gradientColor=none;strokeColor=#198754;strokeWidth=0;fontSize=12;fontStyle=1;fontColor=#FFFFFF;labelBackgroundColor=none;labelBorderColor=none;whiteSpace=wrap;html=1;" parent="1" vertex="1">
          <mxGeometry x="220" y="80" width="125" height="85" as="geometry" />
        </mxCell>
        <mxCell id="mdrjdak4Vv8NUD88eSQF-201" value="Listar todas las partidas" style="ellipse;fontFamily=Titillium Web;fontSource=https%3A%2F%2Ffonts.googleapis.com%2Fcss%3Ffamily%3DTitillium%2BWeb;fillColor=#198754;gradientColor=none;strokeColor=#198754;strokeWidth=0;fontSize=12;fontStyle=1;fontColor=#FFFFFF;labelBackgroundColor=none;labelBorderColor=none;whiteSpace=wrap;html=1;" parent="1" vertex="1">
          <mxGeometry x="435" y="80" width="125" height="85" as="geometry" />
        </mxCell>
        <mxCell id="mdrjdak4Vv8NUD88eSQF-202" value="Listar las 3 mejores partidas" style="ellipse;fontFamily=Titillium Web;fontSource=https%3A%2F%2Ffonts.googleapis.com%2Fcss%3Ffamily%3DTitillium%2BWeb;fillColor=#198754;gradientColor=none;strokeColor=#198754;strokeWidth=0;fontSize=12;fontStyle=1;fontColor=#FFFFFF;labelBackgroundColor=none;labelBorderColor=none;whiteSpace=wrap;html=1;" parent="1" vertex="1">
          <mxGeometry x="645" y="80" width="125" height="85" as="geometry" />
        </mxCell>
        <mxCell id="mdrjdak4Vv8NUD88eSQF-203" value="Acceder al histÃ³rico de partidas" style="ellipse;fontFamily=Titillium Web;fontSource=https%3A%2F%2Ffonts.googleapis.com%2Fcss%3Ffamily%3DTitillium%2BWeb;fillColor=#198754;gradientColor=none;strokeColor=#198754;strokeWidth=0;fontSize=12;fontStyle=1;fontColor=#FFFFFF;labelBackgroundColor=none;labelBorderColor=none;whiteSpace=wrap;html=1;" parent="1" vertex="1">
          <mxGeometry x="257.5" y="220" width="125" height="85" as="geometry" />
        </mxCell>
        <mxCell id="mdrjdak4Vv8NUD88eSQF-204" value="Listar lasÂ  Ãºltimas 10 partidas" style="ellipse;fontFamily=Titillium Web;fontSource=https%3A%2F%2Ffonts.googleapis.com%2Fcss%3Ffamily%3DTitillium%2BWeb;fillColor=#1EA365;gradientColor=none;strokeColor=#105736;strokeWidth=1;fontSize=12;fontStyle=1;fontColor=#FFFFFF;labelBackgroundColor=none;labelBorderColor=none;whiteSpace=wrap;html=1;" parent="1" vertex="1">
          <mxGeometry x="220" y="80" width="125" height="85" as="geometry" />
        </mxCell>
        <mxCell id="mdrjdak4Vv8NUD88eSQF-205" value="Listar todas las partidas" style="ellipse;fontFamily=Titillium Web;fontSource=https%3A%2F%2Ffonts.googleapis.com%2Fcss%3Ffamily%3DTitillium%2BWeb;fillColor=#1EA365;gradientColor=none;strokeColor=#105736;strokeWidth=1;fontSize=12;fontStyle=1;fontColor=#FFFFFF;labelBackgroundColor=none;labelBorderColor=none;whiteSpace=wrap;html=1;" parent="1" vertex="1">
          <mxGeometry x="435" y="80" width="125" height="85" as="geometry" />
        </mxCell>
        <mxCell id="mdrjdak4Vv8NUD88eSQF-206" value="Listar las 3 mejores partidas" style="ellipse;fontFamily=Titillium Web;fontSource=https%3A%2F%2Ffonts.googleapis.com%2Fcss%3Ffamily%3DTitillium%2BWeb;fillColor=#1EA365;gradientColor=none;strokeColor=#105736;strokeWidth=1;fontSize=12;fontStyle=1;fontColor=#FFFFFF;labelBackgroundColor=none;labelBorderColor=none;whiteSpace=wrap;html=1;" parent="1" vertex="1">
          <mxGeometry x="645" y="80" width="125" height="85" as="geometry" />
        </mxCell>
        <mxCell id="mdrjdak4Vv8NUD88eSQF-207" value="Acceder al histÃ³rico de partidas" style="ellipse;fontFamily=Titillium Web;fontSource=https%3A%2F%2Ffonts.googleapis.com%2Fcss%3Ffamily%3DTitillium%2BWeb;fillColor=#1EA365;gradientColor=none;strokeColor=#105736;strokeWidth=1;fontSize=12;fontStyle=1;fontColor=#FFFFFF;labelBackgroundColor=none;labelBorderColor=none;whiteSpace=wrap;html=1;" parent="1" vertex="1">
          <mxGeometry x="257.5" y="220" width="125" height="85" as="geometry" />
        </mxCell>
        <mxCell id="mdrjdak4Vv8NUD88eSQF-208" value="Jugar una partida" style="ellipse;fontFamily=Titillium Web;fontSource=https%3A%2F%2Ffonts.googleapis.com%2Fcss%3Ffamily%3DTitillium%2BWeb;fillColor=#1EA365;gradientColor=none;strokeColor=#105736;strokeWidth=1;fontSize=12;fontStyle=1;fontColor=#FFFFFF;labelBackgroundColor=none;labelBorderColor=none;whiteSpace=wrap;html=1;" parent="1" vertex="1">
          <mxGeometry x="257.5" y="365" width="125" height="85" as="geometry" />
        </mxCell>
        <mxCell id="RjTWlpzveRBfkYPsiYYK-3" style="edgeStyle=orthogonalEdgeStyle;rounded=0;orthogonalLoop=1;jettySize=auto;html=1;entryX=0.016;entryY=0.412;entryDx=0;entryDy=0;entryPerimeter=0;dashed=1;endArrow=open;endFill=0;strokeColor=#198754;" edge="1" parent="1" source="mdrjdak4Vv8NUD88eSQF-209" target="RjTWlpzveRBfkYPsiYYK-1">
          <mxGeometry relative="1" as="geometry" />
        </mxCell>
        <mxCell id="RjTWlpzveRBfkYPsiYYK-4" style="edgeStyle=orthogonalEdgeStyle;rounded=0;orthogonalLoop=1;jettySize=auto;html=1;dashed=1;endArrow=open;endFill=0;strokeColor=#198754;" edge="1" parent="1" source="mdrjdak4Vv8NUD88eSQF-209" target="RjTWlpzveRBfkYPsiYYK-2">
          <mxGeometry relative="1" as="geometry" />
        </mxCell>
        <mxCell id="mdrjdak4Vv8NUD88eSQF-209" value="Intentar adivinar la palabar" style="ellipse;fontFamily=Titillium Web;fontSource=https%3A%2F%2Ffonts.googleapis.com%2Fcss%3Ffamily%3DTitillium%2BWeb;fillColor=#1EA365;gradientColor=none;strokeColor=#105736;strokeWidth=1;fontSize=12;fontStyle=1;fontColor=#FFFFFF;labelBackgroundColor=none;labelBorderColor=none;whiteSpace=wrap;html=1;" parent="1" vertex="1">
          <mxGeometry x="410" y="302.5" width="125" height="85" as="geometry" />
        </mxCell>
        <mxCell id="mdrjdak4Vv8NUD88eSQF-210" value="Iniciar sesiÃ³n" style="ellipse;fontFamily=Titillium Web;fontSource=https%3A%2F%2Ffonts.googleapis.com%2Fcss%3Ffamily%3DTitillium%2BWeb;fillColor=#1EA365;gradientColor=none;strokeColor=#105736;strokeWidth=1;fontSize=12;fontStyle=1;fontColor=#FFFFFF;labelBackgroundColor=none;labelBorderColor=none;whiteSpace=wrap;html=1;" parent="1" vertex="1">
          <mxGeometry x="257.5" y="527.5" width="125" height="85" as="geometry" />
        </mxCell>
        <mxCell id="RjTWlpzveRBfkYPsiYYK-1" value="Ganar la partida" style="ellipse;fontFamily=Titillium Web;fontSource=https%3A%2F%2Ffonts.googleapis.com%2Fcss%3Ffamily%3DTitillium%2BWeb;fillColor=#1EA365;gradientColor=none;strokeColor=#105736;strokeWidth=1;fontSize=12;fontStyle=1;fontColor=#FFFFFF;labelBackgroundColor=none;labelBorderColor=none;whiteSpace=wrap;html=1;" vertex="1" parent="1">
          <mxGeometry x="580" y="270" width="125" height="85" as="geometry" />
        </mxCell>
        <mxCell id="RjTWlpzveRBfkYPsiYYK-2" value="Perder la partida" style="ellipse;fontFamily=Titillium Web;fontSource=https%3A%2F%2Ffonts.googleapis.com%2Fcss%3Ffamily%3DTitillium%2BWeb;fillColor=#1EA365;gradientColor=none;strokeColor=#105736;strokeWidth=1;fontSize=12;fontStyle=1;fontColor=#FFFFFF;labelBackgroundColor=none;labelBorderColor=none;whiteSpace=wrap;html=1;" vertex="1" parent="1">
          <mxGeometry x="580" y="380" width="125" height="85" as="geometry" />
        </mxCell>
        <mxCell id="RjTWlpzveRBfkYPsiYYK-6" value="&amp;lt;&amp;lt;extend&amp;gt;&amp;gt;" style="text;html=1;align=center;verticalAlign=middle;resizable=0;points=[];autosize=1;strokeColor=none;fillColor=none;fontColor=#198754;fontStyle=1;fontSize=13;" vertex="1" parent="1">
          <mxGeometry x="487" y="275" width="100" height="30" as="geometry" />
        </mxCell>
        <mxCell id="RjTWlpzveRBfkYPsiYYK-8" value="&amp;lt;&amp;lt;extend&amp;gt;&amp;gt;" style="text;html=1;align=center;verticalAlign=middle;resizable=0;points=[];autosize=1;strokeColor=none;fillColor=none;fontColor=#198754;fontStyle=1;fontSize=13;" vertex="1" parent="1">
          <mxGeometry x="490" y="380" width="100" height="30" as="geometry" />
        </mxCell>
      </root>
    </mxGraphModel>
  </diagram>
</mxfile>
